<mxfile host="app.diagrams.net" modified="2021-01-09T01:45:27.341Z" agent="5.0 (Windows NT 10.0; Win64; x64) AppleWebKit/537.36 (KHTML, like Gecko) Chrome/87.0.4280.88 Safari/537.36" etag="Uz6K3n-K_3FM_JSAQGn9" version="14.1.8" type="github">
  <diagram id="-bDwAUGZF6HEHL8bTO1k" name="Page-1">
    <mxGraphModel dx="4382" dy="3234" grid="0" gridSize="10" guides="1" tooltips="1" connect="1" arrows="1" fold="1" page="1" pageScale="1" pageWidth="827" pageHeight="1169" background="#FFFFFF" math="0" shadow="0">
      <root>
        <mxCell id="0" />
        <mxCell id="1" parent="0" />
        <mxCell id="z0Eabihm9_tUjj2ShErL-15" value="&lt;font style=&quot;font-size: 18px&quot;&gt;(bs,len,128)&lt;/font&gt;" style="edgeStyle=orthogonalEdgeStyle;rounded=0;orthogonalLoop=1;jettySize=auto;html=1;exitX=0.5;exitY=0;exitDx=0;exitDy=0;entryX=0.5;entryY=1;entryDx=0;entryDy=0;" parent="1" source="z0Eabihm9_tUjj2ShErL-3" target="z0Eabihm9_tUjj2ShErL-9" edge="1">
          <mxGeometry relative="1" as="geometry" />
        </mxCell>
        <mxCell id="z0Eabihm9_tUjj2ShErL-3" value="&lt;font style=&quot;font-size: 24px&quot;&gt;Linear&lt;/font&gt;" style="rounded=1;whiteSpace=wrap;html=1;" parent="1" vertex="1">
          <mxGeometry x="84" y="1010" width="170" height="70" as="geometry" />
        </mxCell>
        <mxCell id="z0Eabihm9_tUjj2ShErL-4" value="&lt;font style=&quot;font-size: 24px&quot;&gt;Linear&lt;/font&gt;" style="rounded=1;whiteSpace=wrap;html=1;" parent="1" vertex="1">
          <mxGeometry x="660" y="1010" width="170" height="70" as="geometry" />
        </mxCell>
        <mxCell id="z0Eabihm9_tUjj2ShErL-7" style="edgeStyle=orthogonalEdgeStyle;rounded=0;orthogonalLoop=1;jettySize=auto;html=1;exitX=0.5;exitY=0;exitDx=0;exitDy=0;entryX=0.5;entryY=1;entryDx=0;entryDy=0;" parent="1" source="z0Eabihm9_tUjj2ShErL-5" target="z0Eabihm9_tUjj2ShErL-3" edge="1">
          <mxGeometry relative="1" as="geometry" />
        </mxCell>
        <mxCell id="z0Eabihm9_tUjj2ShErL-8" style="edgeStyle=orthogonalEdgeStyle;rounded=0;orthogonalLoop=1;jettySize=auto;html=1;exitX=0.5;exitY=0;exitDx=0;exitDy=0;entryX=0.5;entryY=1;entryDx=0;entryDy=0;" parent="1" source="z0Eabihm9_tUjj2ShErL-5" target="z0Eabihm9_tUjj2ShErL-4" edge="1">
          <mxGeometry relative="1" as="geometry" />
        </mxCell>
        <mxCell id="z0Eabihm9_tUjj2ShErL-33" style="edgeStyle=orthogonalEdgeStyle;rounded=0;orthogonalLoop=1;jettySize=auto;html=1;exitX=0.5;exitY=0;exitDx=0;exitDy=0;entryX=0.5;entryY=1;entryDx=0;entryDy=0;" parent="1" source="z0Eabihm9_tUjj2ShErL-5" target="z0Eabihm9_tUjj2ShErL-27" edge="1">
          <mxGeometry relative="1" as="geometry">
            <mxPoint x="444" y="1080" as="targetPoint" />
          </mxGeometry>
        </mxCell>
        <mxCell id="z0Eabihm9_tUjj2ShErL-121" style="edgeStyle=orthogonalEdgeStyle;rounded=0;orthogonalLoop=1;jettySize=auto;html=1;exitX=1;exitY=0.5;exitDx=0;exitDy=0;entryX=1;entryY=0.414;entryDx=0;entryDy=0;entryPerimeter=0;" parent="1" source="z0Eabihm9_tUjj2ShErL-5" target="z0Eabihm9_tUjj2ShErL-117" edge="1">
          <mxGeometry relative="1" as="geometry">
            <Array as="points">
              <mxPoint x="1490" y="1200" />
              <mxPoint x="1490" y="-826" />
            </Array>
          </mxGeometry>
        </mxCell>
        <mxCell id="z0Eabihm9_tUjj2ShErL-5" value="&lt;font style=&quot;font-size: 18px&quot;&gt;输入向量&lt;br&gt;（bs,len,512）&lt;/font&gt;" style="rounded=0;whiteSpace=wrap;html=1;" parent="1" vertex="1">
          <mxGeometry x="384" y="1170" width="120" height="60" as="geometry" />
        </mxCell>
        <mxCell id="z0Eabihm9_tUjj2ShErL-28" style="edgeStyle=orthogonalEdgeStyle;rounded=0;orthogonalLoop=1;jettySize=auto;html=1;exitX=0.5;exitY=0;exitDx=0;exitDy=0;entryX=0.5;entryY=1;entryDx=0;entryDy=0;" parent="1" source="z0Eabihm9_tUjj2ShErL-9" target="z0Eabihm9_tUjj2ShErL-21" edge="1">
          <mxGeometry relative="1" as="geometry" />
        </mxCell>
        <mxCell id="z0Eabihm9_tUjj2ShErL-29" style="edgeStyle=orthogonalEdgeStyle;rounded=0;orthogonalLoop=1;jettySize=auto;html=1;exitX=0.5;exitY=0;exitDx=0;exitDy=0;entryX=0.5;entryY=1;entryDx=0;entryDy=0;" parent="1" source="z0Eabihm9_tUjj2ShErL-9" target="z0Eabihm9_tUjj2ShErL-22" edge="1">
          <mxGeometry relative="1" as="geometry" />
        </mxCell>
        <mxCell id="z0Eabihm9_tUjj2ShErL-9" value="&lt;font style=&quot;font-size: 24px&quot;&gt;no_norm&lt;/font&gt;" style="rounded=1;whiteSpace=wrap;html=1;" parent="1" vertex="1">
          <mxGeometry x="84" y="870" width="170" height="70" as="geometry" />
        </mxCell>
        <mxCell id="z0Eabihm9_tUjj2ShErL-31" style="edgeStyle=orthogonalEdgeStyle;rounded=0;orthogonalLoop=1;jettySize=auto;html=1;exitX=0.5;exitY=0;exitDx=0;exitDy=0;entryX=0.5;entryY=1;entryDx=0;entryDy=0;" parent="1" source="z0Eabihm9_tUjj2ShErL-10" target="z0Eabihm9_tUjj2ShErL-23" edge="1">
          <mxGeometry relative="1" as="geometry" />
        </mxCell>
        <mxCell id="z0Eabihm9_tUjj2ShErL-10" value="&lt;font style=&quot;font-size: 24px&quot;&gt;no_norm&lt;/font&gt;" style="rounded=1;whiteSpace=wrap;html=1;" parent="1" vertex="1">
          <mxGeometry x="660" y="870" width="170" height="70" as="geometry" />
        </mxCell>
        <mxCell id="z0Eabihm9_tUjj2ShErL-19" value="&lt;font style=&quot;font-size: 18px&quot;&gt;(bs,len,128)&lt;/font&gt;" style="edgeStyle=orthogonalEdgeStyle;rounded=0;orthogonalLoop=1;jettySize=auto;html=1;entryX=0.5;entryY=1;entryDx=0;entryDy=0;" parent="1" target="z0Eabihm9_tUjj2ShErL-10" edge="1">
          <mxGeometry relative="1" as="geometry">
            <mxPoint x="745" y="1010" as="sourcePoint" />
            <mxPoint x="395" y="950" as="targetPoint" />
          </mxGeometry>
        </mxCell>
        <mxCell id="z0Eabihm9_tUjj2ShErL-37" style="edgeStyle=orthogonalEdgeStyle;rounded=0;orthogonalLoop=1;jettySize=auto;html=1;exitX=0.5;exitY=0;exitDx=0;exitDy=0;entryX=0.5;entryY=1;entryDx=0;entryDy=0;" parent="1" source="z0Eabihm9_tUjj2ShErL-21" target="z0Eabihm9_tUjj2ShErL-34" edge="1">
          <mxGeometry relative="1" as="geometry" />
        </mxCell>
        <mxCell id="z0Eabihm9_tUjj2ShErL-21" value="&lt;font style=&quot;font-size: 18px&quot;&gt;Q&lt;br&gt;（bs,len,128）&lt;/font&gt;" style="rounded=0;whiteSpace=wrap;html=1;" parent="1" vertex="1">
          <mxGeometry x="15" y="730" width="120" height="60" as="geometry" />
        </mxCell>
        <mxCell id="z0Eabihm9_tUjj2ShErL-38" style="edgeStyle=orthogonalEdgeStyle;rounded=0;orthogonalLoop=1;jettySize=auto;html=1;exitX=0.5;exitY=0;exitDx=0;exitDy=0;entryX=0.5;entryY=1;entryDx=0;entryDy=0;" parent="1" source="z0Eabihm9_tUjj2ShErL-22" edge="1">
          <mxGeometry relative="1" as="geometry">
            <mxPoint x="270" y="680" as="targetPoint" />
          </mxGeometry>
        </mxCell>
        <mxCell id="z0Eabihm9_tUjj2ShErL-22" value="&lt;font style=&quot;font-size: 18px&quot;&gt;K&lt;br&gt;（bs,len,128）&lt;/font&gt;" style="rounded=0;whiteSpace=wrap;html=1;" parent="1" vertex="1">
          <mxGeometry x="210" y="730" width="120" height="60" as="geometry" />
        </mxCell>
        <mxCell id="z0Eabihm9_tUjj2ShErL-74" style="edgeStyle=orthogonalEdgeStyle;rounded=0;orthogonalLoop=1;jettySize=auto;html=1;exitX=0.5;exitY=0;exitDx=0;exitDy=0;" parent="1" source="z0Eabihm9_tUjj2ShErL-23" target="z0Eabihm9_tUjj2ShErL-72" edge="1">
          <mxGeometry relative="1" as="geometry" />
        </mxCell>
        <mxCell id="z0Eabihm9_tUjj2ShErL-23" value="&lt;font style=&quot;font-size: 18px&quot;&gt;RES2&lt;br&gt;（bs,len,128）&lt;/font&gt;" style="rounded=0;whiteSpace=wrap;html=1;" parent="1" vertex="1">
          <mxGeometry x="685" y="730" width="120" height="60" as="geometry" />
        </mxCell>
        <mxCell id="z0Eabihm9_tUjj2ShErL-39" style="edgeStyle=orthogonalEdgeStyle;rounded=0;orthogonalLoop=1;jettySize=auto;html=1;exitX=0.5;exitY=0;exitDx=0;exitDy=0;entryX=0.5;entryY=1;entryDx=0;entryDy=0;" parent="1" source="z0Eabihm9_tUjj2ShErL-27" edge="1">
          <mxGeometry relative="1" as="geometry">
            <mxPoint x="444" y="680" as="targetPoint" />
          </mxGeometry>
        </mxCell>
        <mxCell id="z0Eabihm9_tUjj2ShErL-27" value="&lt;font style=&quot;font-size: 18px&quot;&gt;V&lt;br&gt;（bs,len,512）&lt;/font&gt;" style="rounded=0;whiteSpace=wrap;html=1;" parent="1" vertex="1">
          <mxGeometry x="384" y="730" width="120" height="60" as="geometry" />
        </mxCell>
        <mxCell id="z0Eabihm9_tUjj2ShErL-34" value="&lt;font style=&quot;font-size: 24px&quot;&gt;Linear&lt;/font&gt;" style="rounded=1;whiteSpace=wrap;html=1;" parent="1" vertex="1">
          <mxGeometry x="-10" y="610" width="170" height="70" as="geometry" />
        </mxCell>
        <mxCell id="z0Eabihm9_tUjj2ShErL-55" value="&lt;font style=&quot;font-size: 18px&quot;&gt;(bs,4,len,32),&lt;/font&gt;" style="edgeStyle=orthogonalEdgeStyle;rounded=0;orthogonalLoop=1;jettySize=auto;html=1;exitX=0.5;exitY=0;exitDx=0;exitDy=0;entryX=0.5;entryY=1;entryDx=0;entryDy=0;" parent="1" source="z0Eabihm9_tUjj2ShErL-40" target="z0Eabihm9_tUjj2ShErL-54" edge="1">
          <mxGeometry x="-0.6739" relative="1" as="geometry">
            <mxPoint as="offset" />
          </mxGeometry>
        </mxCell>
        <mxCell id="z0Eabihm9_tUjj2ShErL-40" value="&lt;font style=&quot;font-size: 24px&quot;&gt;transpose1&lt;/font&gt;" style="rounded=1;whiteSpace=wrap;html=1;" parent="1" vertex="1">
          <mxGeometry x="-10" y="470" width="170" height="70" as="geometry" />
        </mxCell>
        <mxCell id="z0Eabihm9_tUjj2ShErL-43" value="&lt;font style=&quot;font-size: 18px&quot;&gt;(bs,len,128)&lt;/font&gt;" style="edgeStyle=orthogonalEdgeStyle;rounded=0;orthogonalLoop=1;jettySize=auto;html=1;exitX=0.5;exitY=0;exitDx=0;exitDy=0;entryX=0.5;entryY=1;entryDx=0;entryDy=0;" parent="1" source="z0Eabihm9_tUjj2ShErL-34" target="z0Eabihm9_tUjj2ShErL-40" edge="1">
          <mxGeometry relative="1" as="geometry">
            <mxPoint x="77" y="605" as="sourcePoint" />
            <mxPoint x="77" y="555" as="targetPoint" />
          </mxGeometry>
        </mxCell>
        <mxCell id="z0Eabihm9_tUjj2ShErL-48" value="&lt;font style=&quot;font-size: 24px&quot;&gt;Linear&lt;/font&gt;" style="rounded=1;whiteSpace=wrap;html=1;" parent="1" vertex="1">
          <mxGeometry x="185" y="610" width="170" height="70" as="geometry" />
        </mxCell>
        <mxCell id="z0Eabihm9_tUjj2ShErL-56" value="&lt;font style=&quot;font-size: 18px&quot;&gt;&lt;span style=&quot;color: rgb(0 , 0 , 0) ; font-family: &amp;#34;helvetica&amp;#34; ; font-style: normal ; font-weight: 400 ; letter-spacing: normal ; text-align: center ; text-indent: 0px ; text-transform: none ; word-spacing: 0px ; background-color: rgb(255 , 255 , 255) ; display: inline ; float: none&quot;&gt;(bs,4,len,32),&lt;/span&gt;&lt;br&gt;&lt;/font&gt;" style="edgeStyle=orthogonalEdgeStyle;rounded=0;orthogonalLoop=1;jettySize=auto;html=1;exitX=0.5;exitY=0;exitDx=0;exitDy=0;entryX=0.5;entryY=1;entryDx=0;entryDy=0;" parent="1" source="z0Eabihm9_tUjj2ShErL-49" target="z0Eabihm9_tUjj2ShErL-54" edge="1">
          <mxGeometry x="-0.6859" relative="1" as="geometry">
            <mxPoint x="170" y="390" as="targetPoint" />
            <mxPoint as="offset" />
          </mxGeometry>
        </mxCell>
        <mxCell id="z0Eabihm9_tUjj2ShErL-49" value="&lt;span style=&quot;font-size: 24px&quot;&gt;transpose1&lt;/span&gt;" style="rounded=1;whiteSpace=wrap;html=1;" parent="1" vertex="1">
          <mxGeometry x="185" y="470" width="170" height="70" as="geometry" />
        </mxCell>
        <mxCell id="z0Eabihm9_tUjj2ShErL-50" value="&lt;font style=&quot;font-size: 18px&quot;&gt;(bs,len,128)&lt;/font&gt;" style="edgeStyle=orthogonalEdgeStyle;rounded=0;orthogonalLoop=1;jettySize=auto;html=1;exitX=0.5;exitY=0;exitDx=0;exitDy=0;entryX=0.5;entryY=1;entryDx=0;entryDy=0;" parent="1" source="z0Eabihm9_tUjj2ShErL-48" target="z0Eabihm9_tUjj2ShErL-49" edge="1">
          <mxGeometry relative="1" as="geometry">
            <mxPoint x="272" y="605" as="sourcePoint" />
            <mxPoint x="272" y="555" as="targetPoint" />
          </mxGeometry>
        </mxCell>
        <mxCell id="z0Eabihm9_tUjj2ShErL-51" value="&lt;font style=&quot;font-size: 24px&quot;&gt;Linear&lt;/font&gt;" style="rounded=1;whiteSpace=wrap;html=1;" parent="1" vertex="1">
          <mxGeometry x="359" y="610" width="170" height="70" as="geometry" />
        </mxCell>
        <mxCell id="z0Eabihm9_tUjj2ShErL-66" value="&lt;font style=&quot;font-size: 18px&quot;&gt;(bs,4,len,32)&lt;/font&gt;" style="edgeStyle=orthogonalEdgeStyle;rounded=0;orthogonalLoop=1;jettySize=auto;html=1;exitX=0.5;exitY=0;exitDx=0;exitDy=0;entryX=0.5;entryY=1;entryDx=0;entryDy=0;" parent="1" source="z0Eabihm9_tUjj2ShErL-52" target="z0Eabihm9_tUjj2ShErL-64" edge="1">
          <mxGeometry relative="1" as="geometry" />
        </mxCell>
        <mxCell id="z0Eabihm9_tUjj2ShErL-52" value="&lt;span style=&quot;font-size: 24px&quot;&gt;transpose1&lt;/span&gt;" style="rounded=1;whiteSpace=wrap;html=1;" parent="1" vertex="1">
          <mxGeometry x="359" y="470" width="170" height="70" as="geometry" />
        </mxCell>
        <mxCell id="z0Eabihm9_tUjj2ShErL-53" value="&lt;font style=&quot;font-size: 18px&quot;&gt;(bs,len,128)&lt;/font&gt;" style="edgeStyle=orthogonalEdgeStyle;rounded=0;orthogonalLoop=1;jettySize=auto;html=1;exitX=0.5;exitY=0;exitDx=0;exitDy=0;entryX=0.5;entryY=1;entryDx=0;entryDy=0;" parent="1" source="z0Eabihm9_tUjj2ShErL-51" target="z0Eabihm9_tUjj2ShErL-52" edge="1">
          <mxGeometry relative="1" as="geometry">
            <mxPoint x="446" y="605" as="sourcePoint" />
            <mxPoint x="446" y="555" as="targetPoint" />
          </mxGeometry>
        </mxCell>
        <mxCell id="z0Eabihm9_tUjj2ShErL-59" value="&lt;font style=&quot;font-size: 18px&quot;&gt;(bs,4,len,len)&lt;/font&gt;" style="edgeStyle=orthogonalEdgeStyle;rounded=0;orthogonalLoop=1;jettySize=auto;html=1;exitX=0.5;exitY=0;exitDx=0;exitDy=0;entryX=0.5;entryY=1;entryDx=0;entryDy=0;" parent="1" source="z0Eabihm9_tUjj2ShErL-54" target="z0Eabihm9_tUjj2ShErL-58" edge="1">
          <mxGeometry relative="1" as="geometry" />
        </mxCell>
        <mxCell id="z0Eabihm9_tUjj2ShErL-54" value="&lt;font style=&quot;font-size: 24px&quot;&gt;matmul&lt;/font&gt;" style="rounded=1;whiteSpace=wrap;html=1;" parent="1" vertex="1">
          <mxGeometry x="84" y="270" width="170" height="70" as="geometry" />
        </mxCell>
        <mxCell id="z0Eabihm9_tUjj2ShErL-62" value="&lt;font style=&quot;font-size: 18px&quot;&gt;(bs,4,len,len)&lt;/font&gt;" style="edgeStyle=orthogonalEdgeStyle;rounded=0;orthogonalLoop=1;jettySize=auto;html=1;exitX=0.5;exitY=0;exitDx=0;exitDy=0;entryX=0.5;entryY=1;entryDx=0;entryDy=0;" parent="1" source="z0Eabihm9_tUjj2ShErL-58" target="z0Eabihm9_tUjj2ShErL-60" edge="1">
          <mxGeometry relative="1" as="geometry" />
        </mxCell>
        <mxCell id="z0Eabihm9_tUjj2ShErL-58" value="&lt;font style=&quot;font-size: 24px&quot;&gt;div&lt;/font&gt;" style="rounded=1;whiteSpace=wrap;html=1;" parent="1" vertex="1">
          <mxGeometry x="84" y="140" width="170" height="70" as="geometry" />
        </mxCell>
        <mxCell id="z0Eabihm9_tUjj2ShErL-63" value="&lt;font style=&quot;font-size: 18px&quot;&gt;(bs,4,len,len)&lt;/font&gt;" style="edgeStyle=orthogonalEdgeStyle;rounded=0;orthogonalLoop=1;jettySize=auto;html=1;exitX=0.5;exitY=0;exitDx=0;exitDy=0;entryX=0.5;entryY=1;entryDx=0;entryDy=0;" parent="1" source="z0Eabihm9_tUjj2ShErL-60" target="z0Eabihm9_tUjj2ShErL-61" edge="1">
          <mxGeometry relative="1" as="geometry" />
        </mxCell>
        <mxCell id="z0Eabihm9_tUjj2ShErL-60" value="&lt;font style=&quot;font-size: 24px&quot;&gt;softmax&lt;/font&gt;" style="rounded=1;whiteSpace=wrap;html=1;" parent="1" vertex="1">
          <mxGeometry x="84" y="20" width="170" height="70" as="geometry" />
        </mxCell>
        <mxCell id="z0Eabihm9_tUjj2ShErL-65" value="&lt;font style=&quot;font-size: 18px&quot;&gt;(bs,4,len,len)&lt;/font&gt;" style="edgeStyle=orthogonalEdgeStyle;rounded=0;orthogonalLoop=1;jettySize=auto;html=1;exitX=1;exitY=0.5;exitDx=0;exitDy=0;entryX=0.5;entryY=0;entryDx=0;entryDy=0;" parent="1" source="z0Eabihm9_tUjj2ShErL-61" target="z0Eabihm9_tUjj2ShErL-64" edge="1">
          <mxGeometry relative="1" as="geometry">
            <mxPoint x="310" y="310" as="targetPoint" />
          </mxGeometry>
        </mxCell>
        <mxCell id="z0Eabihm9_tUjj2ShErL-61" value="&lt;font style=&quot;font-size: 24px&quot;&gt;dropout&lt;/font&gt;" style="rounded=1;whiteSpace=wrap;html=1;" parent="1" vertex="1">
          <mxGeometry x="84" y="-100" width="170" height="70" as="geometry" />
        </mxCell>
        <mxCell id="z0Eabihm9_tUjj2ShErL-69" value="&lt;font style=&quot;font-size: 18px&quot;&gt;(bs,4,len,32)&lt;/font&gt;" style="edgeStyle=orthogonalEdgeStyle;rounded=0;orthogonalLoop=1;jettySize=auto;html=1;exitX=1;exitY=0.5;exitDx=0;exitDy=0;" parent="1" source="z0Eabihm9_tUjj2ShErL-64" target="z0Eabihm9_tUjj2ShErL-67" edge="1">
          <mxGeometry relative="1" as="geometry" />
        </mxCell>
        <mxCell id="z0Eabihm9_tUjj2ShErL-64" value="&lt;font style=&quot;font-size: 24px&quot;&gt;matmul&lt;/font&gt;" style="rounded=1;whiteSpace=wrap;html=1;" parent="1" vertex="1">
          <mxGeometry x="359" y="270" width="170" height="70" as="geometry" />
        </mxCell>
        <mxCell id="z0Eabihm9_tUjj2ShErL-83" value="&lt;font style=&quot;font-size: 18px&quot;&gt;(bs,len,128)&lt;/font&gt;" style="edgeStyle=orthogonalEdgeStyle;rounded=0;orthogonalLoop=1;jettySize=auto;html=1;" parent="1" source="z0Eabihm9_tUjj2ShErL-67" target="z0Eabihm9_tUjj2ShErL-70" edge="1">
          <mxGeometry relative="1" as="geometry" />
        </mxCell>
        <mxCell id="z0Eabihm9_tUjj2ShErL-67" value="&lt;font style=&quot;font-size: 24px&quot;&gt;transpose2&lt;/font&gt;" style="rounded=1;whiteSpace=wrap;html=1;" parent="1" vertex="1">
          <mxGeometry x="660" y="270" width="170" height="70" as="geometry" />
        </mxCell>
        <mxCell id="z0Eabihm9_tUjj2ShErL-78" value="" style="edgeStyle=orthogonalEdgeStyle;rounded=0;orthogonalLoop=1;jettySize=auto;html=1;" parent="1" source="z0Eabihm9_tUjj2ShErL-70" target="z0Eabihm9_tUjj2ShErL-72" edge="1">
          <mxGeometry relative="1" as="geometry" />
        </mxCell>
        <mxCell id="z0Eabihm9_tUjj2ShErL-79" value="&lt;font style=&quot;font-size: 18px&quot;&gt;(bs,len,128)&lt;/font&gt;" style="edgeLabel;html=1;align=center;verticalAlign=middle;resizable=0;points=[];" parent="z0Eabihm9_tUjj2ShErL-78" vertex="1" connectable="0">
          <mxGeometry x="-0.3" y="1" relative="1" as="geometry">
            <mxPoint as="offset" />
          </mxGeometry>
        </mxCell>
        <mxCell id="z0Eabihm9_tUjj2ShErL-70" value="&lt;span style=&quot;font-size: 24px&quot;&gt;Linear&lt;/span&gt;" style="rounded=1;whiteSpace=wrap;html=1;" parent="1" vertex="1">
          <mxGeometry x="660" y="410" width="170" height="70" as="geometry" />
        </mxCell>
        <mxCell id="z0Eabihm9_tUjj2ShErL-89" value="&lt;font style=&quot;font-size: 18px&quot;&gt;(bs,len,128)&lt;/font&gt;" style="edgeStyle=orthogonalEdgeStyle;rounded=0;orthogonalLoop=1;jettySize=auto;html=1;exitX=1;exitY=0.5;exitDx=0;exitDy=0;entryX=0;entryY=0.5;entryDx=0;entryDy=0;" parent="1" source="z0Eabihm9_tUjj2ShErL-72" target="z0Eabihm9_tUjj2ShErL-76" edge="1">
          <mxGeometry relative="1" as="geometry" />
        </mxCell>
        <mxCell id="z0Eabihm9_tUjj2ShErL-72" value="&lt;font style=&quot;font-size: 24px&quot;&gt;add&lt;/font&gt;" style="rounded=1;whiteSpace=wrap;html=1;" parent="1" vertex="1">
          <mxGeometry x="660" y="580" width="170" height="70" as="geometry" />
        </mxCell>
        <mxCell id="z0Eabihm9_tUjj2ShErL-81" style="edgeStyle=orthogonalEdgeStyle;rounded=0;orthogonalLoop=1;jettySize=auto;html=1;exitX=0.5;exitY=0;exitDx=0;exitDy=0;entryX=0.5;entryY=1;entryDx=0;entryDy=0;" parent="1" source="z0Eabihm9_tUjj2ShErL-76" edge="1">
          <mxGeometry relative="1" as="geometry">
            <mxPoint x="1035" y="480" as="targetPoint" />
          </mxGeometry>
        </mxCell>
        <mxCell id="z0Eabihm9_tUjj2ShErL-82" value="&lt;font style=&quot;font-size: 18px&quot;&gt;(bs,len,128)&lt;/font&gt;" style="edgeLabel;html=1;align=center;verticalAlign=middle;resizable=0;points=[];" parent="z0Eabihm9_tUjj2ShErL-81" vertex="1" connectable="0">
          <mxGeometry x="0.3" y="1" relative="1" as="geometry">
            <mxPoint as="offset" />
          </mxGeometry>
        </mxCell>
        <mxCell id="z0Eabihm9_tUjj2ShErL-76" value="&lt;font style=&quot;font-size: 24px&quot;&gt;no_norm&lt;/font&gt;" style="rounded=1;whiteSpace=wrap;html=1;" parent="1" vertex="1">
          <mxGeometry x="950" y="580" width="170" height="70" as="geometry" />
        </mxCell>
        <mxCell id="z0Eabihm9_tUjj2ShErL-91" style="edgeStyle=orthogonalEdgeStyle;rounded=0;orthogonalLoop=1;jettySize=auto;html=1;exitX=0.5;exitY=0;exitDx=0;exitDy=0;entryX=0.5;entryY=1;entryDx=0;entryDy=0;" parent="1" source="z0Eabihm9_tUjj2ShErL-86" target="z0Eabihm9_tUjj2ShErL-90" edge="1">
          <mxGeometry relative="1" as="geometry" />
        </mxCell>
        <mxCell id="z0Eabihm9_tUjj2ShErL-92" value="&lt;font style=&quot;font-size: 18px&quot;&gt;(bs,len,128)&lt;/font&gt;" style="edgeLabel;html=1;align=center;verticalAlign=middle;resizable=0;points=[];" parent="z0Eabihm9_tUjj2ShErL-91" vertex="1" connectable="0">
          <mxGeometry x="0.24" y="1" relative="1" as="geometry">
            <mxPoint as="offset" />
          </mxGeometry>
        </mxCell>
        <mxCell id="Jz__1WM29iwP3S1xcmF--2" style="edgeStyle=orthogonalEdgeStyle;rounded=0;orthogonalLoop=1;jettySize=auto;html=1;exitX=1;exitY=0.25;exitDx=0;exitDy=0;entryX=0.5;entryY=1;entryDx=0;entryDy=0;" edge="1" parent="1" source="z0Eabihm9_tUjj2ShErL-86" target="z0Eabihm9_tUjj2ShErL-107">
          <mxGeometry relative="1" as="geometry" />
        </mxCell>
        <mxCell id="z0Eabihm9_tUjj2ShErL-86" value="&lt;font style=&quot;font-size: 48px&quot;&gt;FFN&lt;/font&gt;&lt;font style=&quot;font-size: 24px&quot;&gt;*(F-1)&lt;/font&gt;" style="whiteSpace=wrap;html=1;aspect=fixed;" parent="1" vertex="1">
          <mxGeometry x="930" y="270" width="210" height="210" as="geometry" />
        </mxCell>
        <mxCell id="z0Eabihm9_tUjj2ShErL-94" value="&lt;font style=&quot;font-size: 18px&quot;&gt;(bs,len,512)&lt;/font&gt;" style="edgeStyle=orthogonalEdgeStyle;rounded=0;orthogonalLoop=1;jettySize=auto;html=1;exitX=0.5;exitY=0;exitDx=0;exitDy=0;entryX=0.5;entryY=1;entryDx=0;entryDy=0;" parent="1" source="z0Eabihm9_tUjj2ShErL-90" target="z0Eabihm9_tUjj2ShErL-93" edge="1">
          <mxGeometry relative="1" as="geometry" />
        </mxCell>
        <mxCell id="z0Eabihm9_tUjj2ShErL-90" value="&lt;font style=&quot;font-size: 24px&quot;&gt;Linear&lt;/font&gt;" style="rounded=1;whiteSpace=wrap;html=1;" parent="1" vertex="1">
          <mxGeometry x="950" y="100" width="170" height="70" as="geometry" />
        </mxCell>
        <mxCell id="z0Eabihm9_tUjj2ShErL-96" value="&lt;font style=&quot;font-size: 18px&quot;&gt;(bs,len,512)&lt;/font&gt;" style="edgeStyle=orthogonalEdgeStyle;rounded=0;orthogonalLoop=1;jettySize=auto;html=1;exitX=0.5;exitY=0;exitDx=0;exitDy=0;entryX=0.5;entryY=1;entryDx=0;entryDy=0;" parent="1" source="z0Eabihm9_tUjj2ShErL-93" target="z0Eabihm9_tUjj2ShErL-95" edge="1">
          <mxGeometry relative="1" as="geometry" />
        </mxCell>
        <mxCell id="z0Eabihm9_tUjj2ShErL-93" value="&lt;font style=&quot;font-size: 24px&quot;&gt;Relu&lt;/font&gt;" style="rounded=1;whiteSpace=wrap;html=1;" parent="1" vertex="1">
          <mxGeometry x="950" y="-40" width="170" height="70" as="geometry" />
        </mxCell>
        <mxCell id="z0Eabihm9_tUjj2ShErL-101" value="&lt;font style=&quot;font-size: 18px&quot;&gt;(bs,len,128)&lt;/font&gt;" style="edgeStyle=orthogonalEdgeStyle;rounded=0;orthogonalLoop=1;jettySize=auto;html=1;exitX=0.5;exitY=0;exitDx=0;exitDy=0;entryX=0.5;entryY=1;entryDx=0;entryDy=0;" parent="1" source="z0Eabihm9_tUjj2ShErL-95" target="z0Eabihm9_tUjj2ShErL-97" edge="1">
          <mxGeometry relative="1" as="geometry" />
        </mxCell>
        <mxCell id="z0Eabihm9_tUjj2ShErL-95" value="&lt;font style=&quot;font-size: 24px&quot;&gt;Linear&lt;/font&gt;" style="rounded=1;whiteSpace=wrap;html=1;" parent="1" vertex="1">
          <mxGeometry x="950" y="-180" width="170" height="70" as="geometry" />
        </mxCell>
        <mxCell id="z0Eabihm9_tUjj2ShErL-102" value="&lt;font style=&quot;font-size: 18px&quot;&gt;(bs,len,128)&lt;/font&gt;" style="edgeStyle=orthogonalEdgeStyle;rounded=0;orthogonalLoop=1;jettySize=auto;html=1;exitX=0.5;exitY=0;exitDx=0;exitDy=0;entryX=0.5;entryY=1;entryDx=0;entryDy=0;" parent="1" source="z0Eabihm9_tUjj2ShErL-97" target="z0Eabihm9_tUjj2ShErL-99" edge="1">
          <mxGeometry relative="1" as="geometry" />
        </mxCell>
        <mxCell id="z0Eabihm9_tUjj2ShErL-97" value="&lt;font style=&quot;font-size: 24px&quot;&gt;add&lt;/font&gt;" style="rounded=1;whiteSpace=wrap;html=1;" parent="1" vertex="1">
          <mxGeometry x="950" y="-320" width="170" height="70" as="geometry" />
        </mxCell>
        <mxCell id="z0Eabihm9_tUjj2ShErL-111" value="&lt;font style=&quot;font-size: 18px&quot;&gt;(bs,len,128)&lt;/font&gt;" style="edgeStyle=orthogonalEdgeStyle;rounded=0;orthogonalLoop=1;jettySize=auto;html=1;exitX=0.5;exitY=0;exitDx=0;exitDy=0;entryX=0.5;entryY=1;entryDx=0;entryDy=0;" parent="1" source="z0Eabihm9_tUjj2ShErL-99" target="z0Eabihm9_tUjj2ShErL-110" edge="1">
          <mxGeometry relative="1" as="geometry" />
        </mxCell>
        <mxCell id="z0Eabihm9_tUjj2ShErL-99" value="&lt;font style=&quot;font-size: 24px&quot;&gt;no_norm&lt;/font&gt;" style="rounded=1;whiteSpace=wrap;html=1;" parent="1" vertex="1">
          <mxGeometry x="950" y="-450" width="170" height="70" as="geometry" />
        </mxCell>
        <mxCell id="z0Eabihm9_tUjj2ShErL-109" style="edgeStyle=orthogonalEdgeStyle;rounded=0;orthogonalLoop=1;jettySize=auto;html=1;exitX=0.5;exitY=0;exitDx=0;exitDy=0;entryX=1;entryY=0.5;entryDx=0;entryDy=0;" parent="1" source="z0Eabihm9_tUjj2ShErL-107" target="z0Eabihm9_tUjj2ShErL-97" edge="1">
          <mxGeometry relative="1" as="geometry" />
        </mxCell>
        <mxCell id="z0Eabihm9_tUjj2ShErL-107" value="&lt;font style=&quot;font-size: 18px&quot;&gt;RES3&lt;br&gt;（bs,len,128）&lt;/font&gt;" style="rounded=0;whiteSpace=wrap;html=1;" parent="1" vertex="1">
          <mxGeometry x="1300" y="130" width="120" height="60" as="geometry" />
        </mxCell>
        <mxCell id="z0Eabihm9_tUjj2ShErL-113" value="&lt;font style=&quot;font-size: 18px&quot;&gt;(bs,len,512)&lt;/font&gt;" style="edgeStyle=orthogonalEdgeStyle;rounded=0;orthogonalLoop=1;jettySize=auto;html=1;exitX=0.5;exitY=0;exitDx=0;exitDy=0;entryX=0.5;entryY=1;entryDx=0;entryDy=0;" parent="1" source="z0Eabihm9_tUjj2ShErL-110" target="z0Eabihm9_tUjj2ShErL-112" edge="1">
          <mxGeometry relative="1" as="geometry" />
        </mxCell>
        <mxCell id="z0Eabihm9_tUjj2ShErL-110" value="&lt;font style=&quot;font-size: 24px&quot;&gt;Linear&lt;/font&gt;" style="rounded=1;whiteSpace=wrap;html=1;" parent="1" vertex="1">
          <mxGeometry x="950" y="-584" width="170" height="70" as="geometry" />
        </mxCell>
        <mxCell id="z0Eabihm9_tUjj2ShErL-115" value="&lt;font style=&quot;font-size: 18px&quot;&gt;(bs,len,512)&lt;/font&gt;" style="edgeStyle=orthogonalEdgeStyle;rounded=0;orthogonalLoop=1;jettySize=auto;html=1;exitX=0.5;exitY=0;exitDx=0;exitDy=0;entryX=0.5;entryY=1;entryDx=0;entryDy=0;" parent="1" source="z0Eabihm9_tUjj2ShErL-112" target="z0Eabihm9_tUjj2ShErL-117" edge="1">
          <mxGeometry relative="1" as="geometry">
            <mxPoint x="1035" y="-760" as="targetPoint" />
          </mxGeometry>
        </mxCell>
        <mxCell id="z0Eabihm9_tUjj2ShErL-112" value="&lt;font style=&quot;font-size: 24px&quot;&gt;dropout&lt;/font&gt;" style="rounded=1;whiteSpace=wrap;html=1;" parent="1" vertex="1">
          <mxGeometry x="950" y="-710" width="170" height="70" as="geometry" />
        </mxCell>
        <mxCell id="z0Eabihm9_tUjj2ShErL-120" value="&lt;font style=&quot;font-size: 18px&quot;&gt;(bs,len,512)&lt;/font&gt;" style="edgeStyle=orthogonalEdgeStyle;rounded=0;orthogonalLoop=1;jettySize=auto;html=1;exitX=0.5;exitY=0;exitDx=0;exitDy=0;entryX=0.5;entryY=1;entryDx=0;entryDy=0;" parent="1" source="z0Eabihm9_tUjj2ShErL-117" target="z0Eabihm9_tUjj2ShErL-118" edge="1">
          <mxGeometry relative="1" as="geometry" />
        </mxCell>
        <mxCell id="z0Eabihm9_tUjj2ShErL-117" value="&lt;font style=&quot;font-size: 24px&quot;&gt;add&lt;/font&gt;" style="rounded=1;whiteSpace=wrap;html=1;" parent="1" vertex="1">
          <mxGeometry x="950" y="-855" width="170" height="70" as="geometry" />
        </mxCell>
        <mxCell id="z0Eabihm9_tUjj2ShErL-125" style="edgeStyle=orthogonalEdgeStyle;rounded=0;orthogonalLoop=1;jettySize=auto;html=1;exitX=0.5;exitY=0;exitDx=0;exitDy=0;entryX=0.5;entryY=0;entryDx=0;entryDy=0;" parent="1" source="z0Eabihm9_tUjj2ShErL-118" target="z0Eabihm9_tUjj2ShErL-123" edge="1">
          <mxGeometry relative="1" as="geometry">
            <Array as="points">
              <mxPoint x="1032" y="-1055" />
              <mxPoint x="595" y="-1055" />
            </Array>
          </mxGeometry>
        </mxCell>
        <mxCell id="z0Eabihm9_tUjj2ShErL-118" value="&lt;font style=&quot;font-size: 24px&quot;&gt;no_norm&lt;/font&gt;" style="rounded=1;whiteSpace=wrap;html=1;" parent="1" vertex="1">
          <mxGeometry x="947" y="-1000" width="170" height="70" as="geometry" />
        </mxCell>
        <mxCell id="z0Eabihm9_tUjj2ShErL-123" value="&lt;font style=&quot;font-size: 48px&quot;&gt;classifier&lt;/font&gt;" style="whiteSpace=wrap;html=1;aspect=fixed;" parent="1" vertex="1">
          <mxGeometry x="490" y="-900" width="210" height="210" as="geometry" />
        </mxCell>
        <mxCell id="z0Eabihm9_tUjj2ShErL-126" value="&lt;font style=&quot;font-size: 48px&quot;&gt;Encoder&lt;/font&gt;" style="whiteSpace=wrap;html=1;aspect=fixed;" parent="1" vertex="1">
          <mxGeometry x="-40" y="-850" width="330" height="330" as="geometry" />
        </mxCell>
      </root>
    </mxGraphModel>
  </diagram>
</mxfile>
